# xmcd
#
# Track frame offsets: 
#        150
#        12923
#        25324
#        46606
#        61454
#        80517
#        100670
#        120386
#        146662
#        158893
#        178026
#        188962
#        200238
#
# Disc length: 2823 seconds
#
# Revision: 0
# Processed by: cddbd v1.5.2PL0 Copyright (c) Steve Scherf et al.
# Submitted via: ExactAudioCopy v0.95b4
#
DISCID=ac0b050d
DTITLE=Sean Carney and The Nite Owlz - Provisions
DYEAR=1998
DGENRE=Blues
TTITLE0=That's Better For Me
TTITLE1=It's My Life Baby
TTITLE2=Love Is Just A Gamble
TTITLE3=I Believe I'll Give It Up
TTITLE4=I'll Die Tryin'
TTITLE5=Sweet Woman From Maine
TTITLE6=The Push
TTITLE7=True Love Untold
TTITLE8=Matchbox
TTITLE9=Ain't That Dandy
TTITLE10=I'm Worried
TTITLE11=You Know Yeah
TTITLE12=Oh Baby
EXTD=
EXTT0=
EXTT1=
EXTT2=
EXTT3=
EXTT4=
EXTT5=
EXTT6=
EXTT7=
EXTT8=
EXTT9=
EXTT10=
EXTT11=
EXTT12=
PLAYORDER=
